<svg xmlns="http://www.w3.org/2000/svg" width="640" height="160" viewBox="0 0 640 160" role="img" aria-label="3DSD viewer">
  <path fill="#fff" d="m 64.100733,139.52 q -15.552,0 -23.616,-8.64 -7.872,-8.64 -7.872,-24.768 V 95.167998 h 19.968 V 107.072 q 0,13.248 10.944,13.248 5.376,0 8.064,-3.264 2.88,-3.456 2.88,-11.904 V 94.207998 q 0,-9.216 -3.264,-13.056 -3.264,-4.032 -10.56,-4.032 h -7.104 v -19.2 h 7.68 q 6.336,0 9.408,-3.264 3.264,-3.264 3.264,-10.944 v -9.792 q 0,-6.912 -2.88,-10.176 -2.88,-3.264 -7.68,-3.264 -10.176,0 -10.176,12.48 v 8.832 h -19.968 v -7.104 q 0,-16.128 7.872,-24.7679995 8.064,-8.64 23.04,-8.64 15.168,0 23.04,8.64 7.872,8.4479995 7.872,24.5759995 v 4.8 q 0,10.944 -3.648,17.664 -3.648,6.528 -11.328,9.408 v 0.384 q 8.256,3.072 11.904,9.984 3.648,6.912 3.648,17.664 V 106.304 q 0,16.128 -8.064,24.768 -7.872,8.448 -23.424,8.448 z M 111.94866,3.1999985 h 32.256 q 15.744,0 23.616,8.4479995 7.872,8.448 7.872,24.768 V 104.384 q 0,16.32 -7.872,24.768 -7.872,8.448 -23.616,8.448 h -32.256 z M 143.82066,118.4 q 5.184,0 7.872,-3.072 2.88,-3.072 2.88,-9.984 V 35.455998 q 0,-6.912 -2.88,-9.984 -2.688,-3.072 -7.872,-3.072 h -10.752 V 118.4 Z m 74.53603,21.12 q -15.36,0 -23.232,-8.64 -7.872,-8.832 -7.872,-25.152 v -7.680002 h 19.968 V 107.264 q 0,13.056 10.944,13.056 5.376,0 8.064,-3.072 2.88,-3.264 2.88,-10.368 0,-8.448002 -3.84,-14.784002 -3.84,-6.528 -14.208,-15.552 -13.056,-11.52 -18.24,-20.736 -5.184,-9.408 -5.184,-21.12 0,-15.936 8.064,-24.576 8.064,-8.8319995 23.424,-8.8319995 15.168,0 22.848,8.8319995 7.872,8.64 7.872,24.96 v 5.568 h -19.968 v -6.912 q 0,-6.912 -2.688,-9.984 -2.688,-3.264 -7.872,-3.264 -10.56,0 -10.56,12.864 0,7.296 3.84,13.632 4.032,6.336 14.4,15.36 13.248,11.52 18.24,20.928 4.992,9.408 4.992,22.080002 0,16.512 -8.256,25.344 -8.064,8.832 -23.616,8.832 z M 263.32464,3.1999985 h 32.256 q 15.744,0 23.616,8.4479995 7.872,8.448 7.872,24.768 V 104.384 q 0,16.32 -7.872,24.768 -7.872,8.448 -23.616,8.448 h -32.256 z M 295.19664,118.4 q 5.184,0 7.872,-3.072 2.88,-3.072 2.88,-9.984 V 35.455998 q 0,-6.912 -2.88,-9.984 -2.688,-3.072 -7.872,-3.072 h -10.752 V 118.4 Z"/>
  <path fill="#fff" d="m 383.99841,83.335735 -18.9375,52.406255 H 354.09216 L 335.10779,83.335735 h 10.92187 l 13.3125,40.406255 h 0.5625 l 13.21875,-40.406255 z m 5.625,52.406255 V 83.335735 h 10.125 v 52.406255 z m 5.10938,-60.468755 q -2.67188,0 -4.54688,-1.78125 -1.875,-1.78125 -1.875,-4.265625 0,-2.53125 1.875,-4.3125 1.875,-1.78125 4.54688,-1.78125 2.625,0 4.5,1.78125 1.92187,1.78125 1.92187,4.3125 0,2.484375 -1.92187,4.265625 -1.875,1.78125 -4.5,1.78125 z m 37.3125,61.546875 q -7.6875,0 -13.3125,-3.32812 -5.625,-3.32813 -8.67188,-9.375 -3,-6.09375 -3,-14.20313 0,-8.0625 2.95313,-14.203125 3,-6.140625 8.39062,-9.5625 5.4375,-3.46875 12.75,-3.46875 4.45313,0 8.625,1.453125 4.17188,1.453125 7.5,4.59375 3.32813,3.140625 5.25,8.15625 1.96875,5.01563 1.96875,12.09375 v 3.65625 h -41.67187 v -7.64062 h 36.42187 l -4.73437,2.53125 q 0,-4.82813 -1.5,-8.531255 -1.5,-3.703125 -4.5,-5.765625 -2.95313,-2.109375 -7.35938,-2.109375 -4.40625,0 -7.54687,2.109375 -3.09375,2.109375 -4.73438,5.578125 -1.64062,3.468755 -1.64062,7.593755 v 5.20312 q 0,5.39063 1.875,9.14063 1.875,3.75 5.20312,5.71875 3.375,1.96875 7.82813,1.96875 2.90625,0 5.25,-0.84375 2.39062,-0.84375 4.125,-2.53125 1.73437,-1.6875 2.625,-4.17188 l 9.65625,1.82813 q -1.17188,4.21875 -4.125,7.40625 -2.95313,3.1875 -7.45313,4.96875 -4.45312,1.73437 -10.17187,1.73437 z m 39.29992,-1.07812 -15.375,-52.406255 h 10.5 l 10.26563,38.484375 h 0.5625 l 10.26562,-38.484375 h 10.54688 l 10.17187,38.343755 h 0.51563 l 10.21875,-38.343755 h 10.5 l -15.375,52.406255 h -10.35938 l -10.6875,-37.781255 h -0.70312 l -10.6875,37.781255 z m 84.81556,1.07812 q -7.6875,0 -13.3125,-3.32812 -5.625,-3.32813 -8.67188,-9.375 -3,-6.09375 -3,-14.20313 0,-8.0625 2.95313,-14.203125 3,-6.140625 8.39062,-9.5625 5.4375,-3.46875 12.75,-3.46875 4.45313,0 8.625,1.453125 4.17188,1.453125 7.5,4.59375 3.32813,3.140625 5.25,8.15625 1.96875,5.01563 1.96875,12.09375 v 3.65625 h -41.67187 v -7.64062 h 36.42187 l -4.73437,2.53125 q 0,-4.82813 -1.5,-8.531255 -1.5,-3.703125 -4.5,-5.765625 -2.95313,-2.109375 -7.35938,-2.109375 -4.40625,0 -7.54687,2.109375 -3.09375,2.109375 -4.73438,5.578125 -1.64062,3.468755 -1.64062,7.593755 v 5.20312 q 0,5.39063 1.875,9.14063 1.875,3.75 5.20312,5.71875 3.375,1.96875 7.82813,1.96875 2.90625,0 5.25,-0.84375 2.39062,-0.84375 4.125,-2.53125 1.73437,-1.6875 2.625,-4.17188 l 9.65625,1.82813 q -1.17188,4.21875 -4.125,7.40625 -2.95313,3.1875 -7.45313,4.96875 -4.45312,1.73437 -10.17187,1.73437 z m 29.57812,-1.07812 V 83.335735 h 9.79688 v 8.390625 h 0.5625 q 1.45312,-4.21875 5.0625,-6.65625 3.65625,-2.484375 8.25,-2.484375 0.9375,0 2.20312,0.09375 1.3125,0.04687 2.10938,0.140625 v 9.75 q -0.60938,-0.1875 -2.20313,-0.375 -1.54687,-0.1875 -3.14062,-0.1875 -3.60938,0 -6.46875,1.546875 -2.8125,1.5 -4.45313,4.171875 -1.59375,2.625 -1.59375,6.09375 v 31.92188 z"/>
</svg>
