{"asset":{"version":"2.0","generator":"THREE.GLTFExporter"},"scenes":[{"nodes":[0,1,2,3,4,5,6,7,8,9,10,11,12,13,14,15,16,17,18,19,20]}],"scene":0,"nodes":[{"matrix":[1,0,0,0,0,1,0,0,0,0,1,0,0,1,0,1]},{"matrix":[1,0,0,0,0,1,0,0,0,0,1,0,-6,8,10,1],"extensions":{"KHR_lights_punctual":{"light":0}}},{"mesh":0},{"mesh":1},{"mesh":2},{"mesh":3},{"mesh":4},{"mesh":5},{"mesh":6},{"mesh":7},{"mesh":8},{"mesh":9},{"mesh":10},{"mesh":11},{"mesh":12},{"mesh":13},{"mesh":14},{"mesh":15},{"mesh":16},{"mesh":17},{"mesh":18}],"extensions":{"KHR_lights_punctual":{"lights":[{"color":[1,1,1],"intensity":0.9,"type":"directional"}]}},"bufferViews":[{"buffer":0,"byteOffset":0,"byteLength":396,"target":34962,"byteStride":12},{"buffer":0,"byteOffset":396,"byteLength":396,"target":34962,"byteStride":12},{"buffer":0,"byteOffset":792,"byteLength":396,"target":34962,"byteStride":12},{"buffer":0,"byteOffset":1188,"byteLength":396,"target":34962,"byteStride":12},{"buffer":0,"byteOffset":1584,"byteLength":396,"target":34962,"byteStride":12},{"buffer":0,"byteOffset":1980,"byteLength":396,"target":34962,"byteStride":12},{"buffer":0,"byteOffset":2376,"byteLength":396,"target":34962,"byteStride":12},{"buffer":0,"byteOffset":2772,"byteLength":396,"target":34962,"byteStride":12},{"buffer":0,"byteOffset":3168,"byteLength":24,"target":34962,"byteStride":12},{"buffer":0,"byteOffset":3192,"byteLength":24,"target":34962,"byteStride":12},{"buffer":0,"byteOffset":3216,"byteLength":24,"target":34962,"byteStride":12},{"buffer":0,"byteOffset":3240,"byteLength":24,"target":34962,"byteStride":12},{"buffer":0,"byteOffset":3264,"byteLength":24,"target":34962,"byteStride":12},{"buffer":0,"byteOffset":3288,"byteLength":24,"target":34962,"byteStride":12},{"buffer":0,"byteOffset":3312,"byteLength":24,"target":34962,"byteStride":12},{"buffer":0,"byteOffset":3336,"byteLength":24,"target":34962,"byteStride":12},{"buffer":0,"byteOffset":3360,"byteLength":24,"target":34962,"byteStride":12},{"buffer":0,"byteOffset":3384,"byteLength":780,"target":34962,"byteStride":12},{"buffer":0,"byteOffset":4164,"byteLength":780,"target":34962,"byteStride":12}],"buffers":[{"byteLength":4944,"uri":"data:application/octet-stream;base64,"}],"accessors":[{"bufferView":0,"componentType":5126,"count":33,"max":[72,32,-2.1587887033547304e-10],"min":[63.999942779541016,32,-16],"type":"VEC3"},{"bufferView":1,"componentType":5126,"count":33,"max":[0,104,16],"min":[0,95.99993896484375,0],"type":"VEC3"},{"bufferView":2,"componentType":5126,"count":33,"max":[0,16,72],"min":[0,5.397016167307811e-11,63.999969482421875],"type":"VEC3"},{"bufferView":3,"componentType":5126,"count":33,"max":[32,0.000058771282056113705,-16],"min":[32,-8,-32],"type":"VEC3"},{"bufferView":4,"componentType":5126,"count":33,"max":[32,16.000059127807617,-32],"min":[32,8,-48],"type":"VEC3"},{"bufferView":5,"componentType":5126,"count":33,"max":[32,32,-48],"min":[1.0794032334615622e-10,15.999940872192383,-48],"type":"VEC3"},{"bufferView":6,"componentType":5126,"count":33,"max":[32,32,-16],"min":[16,15.999940872192383,-16],"type":"VEC3"},{"bufferView":7,"componentType":5126,"count":33,"max":[32,32,-32],"min":[16,15.999940872192383,-32],"type":"VEC3"},{"bufferView":8,"componentType":5126,"count":2,"max":[64,32,0],"min":[0,32,0],"type":"VEC3"},{"bufferView":9,"componentType":5126,"count":2,"max":[64,32,-16],"min":[16,32,-16],"type":"VEC3"},{"bufferView":10,"componentType":5126,"count":2,"max":[0,96,16],"min":[0,16,16],"type":"VEC3"},{"bufferView":11,"componentType":5126,"count":2,"max":[0,96,0],"min":[0,32,0],"type":"VEC3"},{"bufferView":12,"componentType":5126,"count":2,"max":[0,0,64],"min":[0,0,32],"type":"VEC3"},{"bufferView":13,"componentType":5126,"count":2,"max":[0,16,64],"min":[0,16,16],"type":"VEC3"},{"bufferView":14,"componentType":5126,"count":2,"max":[32,16,-16],"min":[32,0,-16],"type":"VEC3"},{"bufferView":15,"componentType":5126,"count":2,"max":[32,16,-32],"min":[32,0,-32],"type":"VEC3"},{"bufferView":16,"componentType":5126,"count":2,"max":[0,16,-48],"min":[0,0,-48],"type":"VEC3"},{"bufferView":17,"componentType":5126,"count":65,"max":[0,0,-36.284217834472656],"min":[0,-45.25491714477539,-48],"type":"VEC3"},{"bufferView":18,"componentType":5126,"count":65,"max":[0,0.00047017025644890964,32],"min":[0,-45.25458526611328,20.284427642822266],"type":"VEC3"}],"materials":[{"pbrMetallicRoughness":{"baseColorFactor":[0.04373502925049377,0.22322795730611386,0.9215818562755338,1],"metallicFactor":0.5,"roughnessFactor":0.5}},{"pbrMetallicRoughness":{"baseColorFactor":[0.015996293361446288,0.5583403896257968,0.11193242782769693,1],"metallicFactor":0.5,"roughnessFactor":0.5}},{"pbrMetallicRoughness":{"baseColorFactor":[0.8631572134510892,0.057805430183792694,0.057805430183792694,1],"metallicFactor":0.5,"roughnessFactor":0.5}},{"pbrMetallicRoughness":{"baseColorFactor":[0.057805430183792694,0.057805430183792694,0.057805430183792694,1],"metallicFactor":0.5,"roughnessFactor":0.5}},{"pbrMetallicRoughness":{"baseColorFactor":[0.057805430183792694,0.057805430183792694,0.057805430183792694,1],"metallicFactor":0.5,"roughnessFactor":0.5}},{"pbrMetallicRoughness":{"baseColorFactor":[0.057805430183792694,0.057805430183792694,0.057805430183792694,1],"metallicFactor":0.5,"roughnessFactor":0.5}},{"pbrMetallicRoughness":{"baseColorFactor":[0.057805430183792694,0.057805430183792694,0.057805430183792694,1],"metallicFactor":0.5,"roughnessFactor":0.5}},{"pbrMetallicRoughness":{"baseColorFactor":[0.057805430183792694,0.057805430183792694,0.057805430183792694,1],"metallicFactor":0.5,"roughnessFactor":0.5}},{"pbrMetallicRoughness":{"baseColorFactor":[0.04373502925049377,0.22322795730611386,0.9215818562755338,1],"metallicFactor":0.5,"roughnessFactor":0.5}},{"pbrMetallicRoughness":{"baseColorFactor":[0.04373502925049377,0.22322795730611386,0.9215818562755338,1],"metallicFactor":0.5,"roughnessFactor":0.5}},{"pbrMetallicRoughness":{"baseColorFactor":[0.015996293361446288,0.5583403896257968,0.11193242782769693,1],"metallicFactor":0.5,"roughnessFactor":0.5}},{"pbrMetallicRoughness":{"baseColorFactor":[0.015996293361446288,0.5583403896257968,0.11193242782769693,1],"metallicFactor":0.5,"roughnessFactor":0.5}},{"pbrMetallicRoughness":{"baseColorFactor":[0.8631572134510892,0.057805430183792694,0.057805430183792694,1],"metallicFactor":0.5,"roughnessFactor":0.5}},{"pbrMetallicRoughness":{"baseColorFactor":[0.8631572134510892,0.057805430183792694,0.057805430183792694,1],"metallicFactor":0.5,"roughnessFactor":0.5}},{"pbrMetallicRoughness":{"baseColorFactor":[0.057805430183792694,0.057805430183792694,0.057805430183792694,1],"metallicFactor":0.5,"roughnessFactor":0.5}},{"pbrMetallicRoughness":{"baseColorFactor":[0.057805430183792694,0.057805430183792694,0.057805430183792694,1],"metallicFactor":0.5,"roughnessFactor":0.5}},{"pbrMetallicRoughness":{"baseColorFactor":[0.057805430183792694,0.057805430183792694,0.057805430183792694,1],"metallicFactor":0.5,"roughnessFactor":0.5}},{"pbrMetallicRoughness":{"baseColorFactor":[0.033104766565152086,0.033104766565152086,0.033104766565152086,1],"metallicFactor":0.5,"roughnessFactor":0.5}},{"pbrMetallicRoughness":{"baseColorFactor":[0.033104766565152086,0.033104766565152086,0.033104766565152086,1],"metallicFactor":0.5,"roughnessFactor":0.5}}],"meshes":[{"primitives":[{"mode":3,"attributes":{"POSITION":0},"material":0}]},{"primitives":[{"mode":3,"attributes":{"POSITION":1},"material":1}]},{"primitives":[{"mode":3,"attributes":{"POSITION":2},"material":2}]},{"primitives":[{"mode":3,"attributes":{"POSITION":3},"material":3}]},{"primitives":[{"mode":3,"attributes":{"POSITION":4},"material":4}]},{"primitives":[{"mode":3,"attributes":{"POSITION":5},"material":5}]},{"primitives":[{"mode":3,"attributes":{"POSITION":6},"material":6}]},{"primitives":[{"mode":3,"attributes":{"POSITION":7},"material":7}]},{"primitives":[{"mode":3,"attributes":{"POSITION":8},"material":8}]},{"primitives":[{"mode":3,"attributes":{"POSITION":9},"material":9}]},{"primitives":[{"mode":3,"attributes":{"POSITION":10},"material":10}]},{"primitives":[{"mode":3,"attributes":{"POSITION":11},"material":11}]},{"primitives":[{"mode":3,"attributes":{"POSITION":12},"material":12}]},{"primitives":[{"mode":3,"attributes":{"POSITION":13},"material":13}]},{"primitives":[{"mode":3,"attributes":{"POSITION":14},"material":14}]},{"primitives":[{"mode":3,"attributes":{"POSITION":15},"material":15}]},{"primitives":[{"mode":3,"attributes":{"POSITION":16},"material":16}]},{"primitives":[{"mode":3,"attributes":{"POSITION":17},"material":17}]},{"primitives":[{"mode":3,"attributes":{"POSITION":18},"material":18}]}],"extensionsUsed":["KHR_lights_punctual"]}