<svg xmlns="http://www.w3.org/2000/svg" width="310" height="160" viewBox="130 0 310 160" role="img" aria-label="3DSD">
  <path fill="#fff" d="m 169.46005,139.52 q -15.552,0 -23.616,-8.64 -7.872,-8.64 -7.872,-24.768 V 95.167998 h 19.968 V 107.072 q 0,13.248 10.944,13.248 5.376,0 8.064,-3.264 2.88,-3.456 2.88,-11.904 V 94.207998 q 0,-9.216 -3.264,-13.056 -3.264,-4.032 -10.56,-4.032 h -7.104 v -19.2 h 7.68 q 6.336,0 9.408,-3.264 3.264,-3.264 3.264,-10.944 v -9.792 q 0,-6.912 -2.88,-10.176 -2.88,-3.264 -7.68,-3.264 -10.176,0 -10.176,12.48 v 8.832 h -19.968 v -7.104 q 0,-16.128 7.872,-24.7679995 8.064,-8.64 23.04,-8.64 15.168,0 23.04,8.64 7.872,8.4479995 7.872,24.5759995 v 4.8 q 0,10.944 -3.648,17.664 -3.648,6.528 -11.328,9.408 v 0.384 q 8.256,3.072 11.904,9.984 3.648,6.912 3.648,17.664 V 106.304 q 0,16.128 -8.064,24.768 -7.872,8.448 -23.424,8.448 z M 217.30797,3.1999985 h 32.256 q 15.744,0 23.616,8.4479995 7.872,8.448 7.872,24.768 V 104.384 q 0,16.32 -7.872,24.768 -7.872,8.448 -23.616,8.448 h -32.256 z M 249.17997,118.4 q 5.184,0 7.872,-3.072 2.88,-3.072 2.88,-9.984 V 35.455998 q 0,-6.912 -2.88,-9.984 -2.688,-3.072 -7.872,-3.072 h -10.752 V 118.4 Z m 74.53603,21.12 q -15.36,0 -23.232,-8.64 -7.872,-8.832 -7.872,-25.152 V 98.047998 H 312.58 V 107.264 q 0,13.056 10.944,13.056 5.376,0 8.064,-3.072 2.88,-3.264 2.88,-10.368 0,-8.448002 -3.84,-14.784002 -3.84,-6.528 -14.208,-15.552 -13.056,-11.52 -18.24,-20.736 -5.184,-9.408 -5.184,-21.12 0,-15.936 8.064,-24.576 8.064,-8.8319995 23.424,-8.8319995 15.168,0 22.848,8.8319995 7.872,8.64 7.872,24.96 v 5.568 h -19.968 v -6.912 q 0,-6.912 -2.688,-9.984 -2.688,-3.264 -7.872,-3.264 -10.56,0 -10.56,12.864 0,7.296 3.84,13.632 4.032,6.336 14.4,15.36 13.248,11.52 18.24,20.928 4.992,9.408 4.992,22.080002 0,16.512 -8.256,25.344 -8.064,8.832 -23.616,8.832 z M 368.68395,3.1999985 h 32.256 q 15.744,0 23.616,8.4479995 7.872,8.448 7.872,24.768 V 104.384 q 0,16.32 -7.872,24.768 -7.872,8.448 -23.616,8.448 h -32.256 z M 400.55595,118.4 q 5.184,0 7.872,-3.072 2.88,-3.072 2.88,-9.984 V 35.455998 q 0,-6.912 -2.88,-9.984 -2.688,-3.072 -7.872,-3.072 h -10.752 V 118.4 Z"/>
</svg>
