<svg xmlns="http://www.w3.org/2000/svg" width="680" height="160" viewBox="130 0 680 160" role="img" aria-label="3DSD modeler">
  <path fill="#fff" d="m 179.59286,139.52 q -15.552,0 -23.616,-8.64 -7.872,-8.64 -7.872,-24.768 V 95.167998 h 19.968 V 107.072 q 0,13.248 10.944,13.248 5.376,0 8.064,-3.264 2.88,-3.456 2.88,-11.904 V 94.207998 q 0,-9.216 -3.264,-13.056 -3.264,-4.032 -10.56,-4.032 h -7.104 v -19.2 h 7.68 q 6.336,0 9.408,-3.264 3.264,-3.264 3.264,-10.944 v -9.792 q 0,-6.912 -2.88,-10.176 -2.88,-3.264 -7.68,-3.264 -10.176,0 -10.176,12.48 v 8.832 h -19.968 v -7.104 q 0,-16.128 7.872,-24.7679995 8.064,-8.64 23.04,-8.64 15.168,0 23.04,8.64 7.872,8.4479995 7.872,24.5759995 v 4.8 q 0,10.944 -3.648,17.664 -3.648,6.528 -11.328,9.408 v 0.384 q 8.256,3.072 11.904,9.984 3.648,6.912 3.648,17.664 V 106.304 q 0,16.128 -8.064,24.768 -7.872,8.448 -23.424,8.448 z M 227.44079,3.1999985 h 32.256 q 15.744,0 23.616,8.4479995 7.872,8.448 7.872,24.768 V 104.384 q 0,16.32 -7.872,24.768 -7.872,8.448 -23.616,8.448 h -32.256 z M 259.31279,118.4 q 5.184,0 7.872,-3.072 2.88,-3.072 2.88,-9.984 V 35.455998 q 0,-6.912 -2.88,-9.984 -2.688,-3.072 -7.872,-3.072 h -10.752 V 118.4 Z m 74.53602,21.12 q -15.36,0 -23.232,-8.64 -7.872,-8.832 -7.872,-25.152 v -7.680002 h 19.968 V 107.264 q 0,13.056 10.944,13.056 5.376,0 8.064,-3.072 2.88,-3.264 2.88,-10.368 0,-8.448002 -3.84,-14.784002 -3.84,-6.528 -14.208,-15.552 -13.056,-11.52 -18.24,-20.736 -5.184,-9.408 -5.184,-21.12 0,-15.936 8.064,-24.576 8.064,-8.8319995 23.424,-8.8319995 15.168,0 22.848,8.8319995 7.872,8.64 7.872,24.96 v 5.568 h -19.968 v -6.912 q 0,-6.912 -2.688,-9.984 -2.688,-3.264 -7.872,-3.264 -10.56,0 -10.56,12.864 0,7.296 3.84,13.632 4.032,6.336 14.4,15.36 13.248,11.52 18.24,20.928 4.992,9.408 4.992,22.080002 0,16.512 -8.256,25.344 -8.064,8.832 -23.616,8.832 z M 378.81676,3.1999985 h 32.256 q 15.744,0 23.616,8.4479995 7.872,8.448 7.872,24.768 V 104.384 q 0,16.32 -7.872,24.768 -7.872,8.448 -23.616,8.448 h -32.256 z M 410.68876,118.4 q 5.184,0 7.872,-3.072 2.88,-3.072 2.88,-9.984 V 35.455998 q 0,-6.912 -2.88,-9.984 -2.688,-3.072 -7.872,-3.072 h -10.752 V 118.4 Z"/>
  <path fill="#fff" d="M 454.77179,135.74199 V 83.335735 h 9.70312 v 8.625 h 0.70313 q 1.64062,-4.359375 5.34375,-6.796875 3.75,-2.484375 8.90625,-2.484375 5.25,0 8.76562,2.484375 3.5625,2.4375 5.29688,6.796875 h 0.5625 q 1.875,-4.265625 5.95312,-6.75 4.07813,-2.53125 9.70313,-2.53125 7.125,0 11.67187,4.5 4.54688,4.453125 4.54688,13.453125 v 35.10938 h -10.21875 v -34.17188 q 0,-5.34375 -2.90625,-7.6875 -2.90625,-2.390625 -6.9375,-2.390625 -4.96875,0 -7.73438,3.09375 -2.71875,3.046875 -2.71875,7.734375 v 33.42188 h -10.21875 v -34.82813 q 0,-4.265625 -2.625,-6.84375 -2.625,-2.578125 -6.89062,-2.578125 -2.90625,0 -5.39063,1.546875 -2.4375,1.5 -3.9375,4.21875 -1.45312,2.671875 -1.45312,6.1875 v 32.29688 z m 102.89062,1.07812 q -7.35937,0 -12.89062,-3.375 -5.48438,-3.375 -8.53125,-9.46875 -3,-6.09375 -3,-14.15625 0,-8.15625 3,-14.25 3.04687,-6.140625 8.53125,-9.515625 5.53125,-3.375 12.89062,-3.375 7.40625,0 12.89063,3.375 5.48437,3.375 8.53125,9.515625 3.04687,6.09375 3.04687,14.25 0,8.0625 -3.04687,14.15625 -3.04688,6.09375 -8.53125,9.46875 -5.48438,3.375 -12.89063,3.375 z m 0,-8.57812 q 4.82813,0 7.96875,-2.53125 3.14063,-2.53125 4.64063,-6.70313 1.54687,-4.21875 1.54687,-9.1875 0,-5.0625 -1.54687,-9.28125 -1.5,-4.21875 -4.64063,-6.75 -3.14062,-2.53125 -7.96875,-2.53125 -4.78125,0 -7.92187,2.53125 -3.09375,2.53125 -4.64063,6.75 -1.54687,4.21875 -1.54687,9.28125 0,4.96875 1.54687,9.1875 1.54688,4.17188 4.64063,6.70313 3.14062,2.53125 7.92187,2.53125 z m 51.28125,8.53125 q -6.375,0 -11.34375,-3.23438 -4.96875,-3.28125 -7.78125,-9.32812 -2.8125,-6.09375 -2.8125,-14.53125 0,-8.53125 2.85938,-14.57813 2.85937,-6.046875 7.82812,-9.234375 4.96875,-3.1875 11.25,-3.1875 4.92188,0 7.875,1.640625 3,1.59375 4.64063,3.75 1.6875,2.15625 2.57812,3.796875 h 0.60938 v -25.96875 h 10.125 v 69.843755 h -9.89063 v -8.15625 h -0.84375 q -0.89062,1.64062 -2.625,3.79687 -1.73437,2.15625 -4.73437,3.79688 -2.95313,1.59375 -7.73438,1.59375 z m 2.20313,-8.67188 q 4.40625,0 7.45312,-2.34375 3.04688,-2.34375 4.59375,-6.51562 1.59375,-4.17188 1.59375,-9.65625 0,-5.48438 -1.54687,-9.5625 -1.54688,-4.125005 -4.59375,-6.375005 -3.04688,-2.296875 -7.5,-2.296875 -4.59375,0 -7.64063,2.390625 -3.04687,2.390625 -4.59375,6.515625 -1.54687,4.125 -1.54687,9.32813 0,5.25 1.54687,9.46875 1.54688,4.17187 4.59375,6.60937 3.09375,2.4375 7.64063,2.4375 z m 55.92187,8.71875 q -7.6875,0 -13.3125,-3.32812 -5.625,-3.32813 -8.67187,-9.375 -3,-6.09375 -3,-14.20313 0,-8.0625 2.95312,-14.203125 3,-6.140625 8.39063,-9.5625 5.4375,-3.46875 12.75,-3.46875 4.45312,0 8.625,1.453125 4.17187,1.453125 7.5,4.59375 3.32812,3.140625 5.25,8.15625 1.96875,5.01563 1.96875,12.09375 v 3.65625 h -41.67188 v -7.64062 h 36.42188 l -4.73438,2.53125 q 0,-4.82813 -1.5,-8.531255 -1.5,-3.703125 -4.5,-5.765625 -2.95312,-2.109375 -7.35937,-2.109375 -4.40625,0 -7.54688,2.109375 -3.09375,2.109375 -4.73437,5.578125 -1.64063,3.468755 -1.64063,7.593755 v 5.20312 q 0,5.39063 1.875,9.14063 1.875,3.75 5.20313,5.71875 3.375,1.96875 7.82812,1.96875 2.90625,0 5.25,-0.84375 2.39063,-0.84375 4.125,-2.53125 1.73438,-1.6875 2.625,-4.17188 l 9.65625,1.82813 q -1.17187,4.21875 -4.125,7.40625 -2.95312,3.1875 -7.45312,4.96875 -4.45313,1.73437 -10.17188,1.73437 z m 39.70313,-70.921875 v 69.843755 h -10.125 V 65.898235 Z m 32.29687,70.921875 q -7.6875,0 -13.3125,-3.32812 -5.625,-3.32813 -8.67187,-9.375 -3,-6.09375 -3,-14.20313 0,-8.0625 2.95312,-14.203125 3,-6.140625 8.39063,-9.5625 5.4375,-3.46875 12.75,-3.46875 4.45312,0 8.625,1.453125 4.17187,1.453125 7.5,4.59375 3.32812,3.140625 5.25,8.15625 1.96875,5.01563 1.96875,12.09375 v 3.65625 h -41.67188 v -7.64062 h 36.42188 l -4.73438,2.53125 q 0,-4.82813 -1.5,-8.531255 -1.5,-3.703125 -4.5,-5.765625 -2.95312,-2.109375 -7.35937,-2.109375 -4.40625,0 -7.54688,2.109375 -3.09375,2.109375 -4.73437,5.578125 -1.64063,3.468755 -1.64063,7.593755 v 5.20312 q 0,5.39063 1.875,9.14063 1.875,3.75 5.20313,5.71875 3.375,1.96875 7.82812,1.96875 2.90625,0 5.25,-0.84375 2.39063,-0.84375 4.125,-2.53125 1.73438,-1.6875 2.625,-4.17188 l 9.65625,1.82813 q -1.17187,4.21875 -4.125,7.40625 -2.95312,3.1875 -7.45312,4.96875 -4.45313,1.73437 -10.17188,1.73437 z m 29.57813,-1.07812 V 83.335735 h 9.79687 v 8.390625 h 0.5625 q 1.45313,-4.21875 5.0625,-6.65625 3.65625,-2.484375 8.25,-2.484375 0.9375,0 2.20313,0.09375 1.3125,0.04687 2.10937,0.140625 v 9.75 q -0.60937,-0.1875 -2.20312,-0.375 -1.54688,-0.1875 -3.14063,-0.1875 -3.60937,0 -6.46875,1.546875 -2.8125,1.5 -4.45312,4.171875 -1.59375,2.625 -1.59375,6.09375 v 31.92188 z"/>
</svg>
